<svg width="304" height="304" viewBox="0 0 304 304" fill="none" xmlns="http://www.w3.org/2000/svg">
<g filter="url(#filter0_d)">
<circle cx="152" cy="150" r="150" fill="url(#paint0_linear)"/>
</g>
<g filter="url(#filter1_di)">
<circle cx="152" cy="150" r="138.249" fill="white"/>
</g>
<mask id="mask0" mask-type="alpha" maskUnits="userSpaceOnUse" x="13" y="11" width="278" height="278">
<circle cx="152" cy="150" r="138.249" fill="white"/>
</mask>
<g mask="url(#mask0)">
<rect width="276" height="276" transform="translate(14 12)" fill="white"/>
<g clip-path="url(#clip0)">
<rect width="276" height="276" transform="translate(14 12)" fill="#00D1B2"/>
<rect x="14" y="12" width="276" height="276" fill="url(#paint1_linear)"/>
<rect x="14" y="12" width="276" height="276" fill="url(#paint2_linear)"/>
</g>
<g clip-path="url(#clip1)">
<path d="M183.011 73.8277C184.859 66.9314 176.244 62.1614 171.38 67.3876L102.851 141.019C99.3322 144.799 101.104 150.966 106.092 152.303L131.842 159.202C135.496 160.181 137.665 163.938 136.686 167.592L120.989 226.173C119.141 233.069 127.756 237.839 132.62 232.613L201.149 158.981C204.668 155.201 202.897 149.034 197.908 147.698L172.159 140.798C168.504 139.819 166.335 136.063 167.315 132.408L183.011 73.8277Z" fill="white"/>
</g>
</g>
<circle cx="152" cy="150" r="150" fill="url(#paint3_linear)"/>
<defs>
<filter id="filter0_d" x="0" y="0" width="304" height="304" filterUnits="userSpaceOnUse" color-interpolation-filters="sRGB">
<feFlood flood-opacity="0" result="BackgroundImageFix"/>
<feColorMatrix in="SourceAlpha" type="matrix" values="0 0 0 0 0 0 0 0 0 0 0 0 0 0 0 0 0 0 127 0"/>
<feOffset dy="2"/>
<feGaussianBlur stdDeviation="1"/>
<feColorMatrix type="matrix" values="0 0 0 0 0 0 0 0 0 0 0 0 0 0 0 0 0 0 0.15 0"/>
<feBlend mode="normal" in2="BackgroundImageFix" result="effect1_dropShadow"/>
<feBlend mode="normal" in="SourceGraphic" in2="effect1_dropShadow" result="shape"/>
</filter>
<filter id="filter1_di" x="11.7512" y="7.75116" width="280.498" height="280.498" filterUnits="userSpaceOnUse" color-interpolation-filters="sRGB">
<feFlood flood-opacity="0" result="BackgroundImageFix"/>
<feColorMatrix in="SourceAlpha" type="matrix" values="0 0 0 0 0 0 0 0 0 0 0 0 0 0 0 0 0 0 127 0"/>
<feOffset dy="-2"/>
<feGaussianBlur stdDeviation="1"/>
<feColorMatrix type="matrix" values="0 0 0 0 0 0 0 0 0 0 0 0 0 0 0 0 0 0 0.15 0"/>
<feBlend mode="normal" in2="BackgroundImageFix" result="effect1_dropShadow"/>
<feBlend mode="normal" in="SourceGraphic" in2="effect1_dropShadow" result="shape"/>
<feColorMatrix in="SourceAlpha" type="matrix" values="0 0 0 0 0 0 0 0 0 0 0 0 0 0 0 0 0 0 127 0" result="hardAlpha"/>
<feOffset/>
<feGaussianBlur stdDeviation="2"/>
<feComposite in2="hardAlpha" operator="arithmetic" k2="-1" k3="1"/>
<feColorMatrix type="matrix" values="0 0 0 0 0 0 0 0 0 0 0 0 0 0 0 0 0 0 0.12 0"/>
<feBlend mode="normal" in2="shape" result="effect2_innerShadow"/>
</filter>
<linearGradient id="paint0_linear" x1="152" y1="0" x2="152" y2="300" gradientUnits="userSpaceOnUse">
<stop stop-color="white"/>
<stop offset="1" stop-color="#EAEFF1"/>
</linearGradient>
<linearGradient id="paint1_linear" x1="10.763" y1="12" x2="86.3204" y2="335.563" gradientUnits="userSpaceOnUse">
<stop stop-color="white" stop-opacity="0.26"/>
<stop offset="0.471233" stop-color="white" stop-opacity="0.0781197"/>
<stop offset="1" stop-color="white" stop-opacity="0"/>
</linearGradient>
<linearGradient id="paint2_linear" x1="10.763" y1="12" x2="86.3204" y2="335.563" gradientUnits="userSpaceOnUse">
<stop stop-color="white" stop-opacity="0.26"/>
<stop offset="0.471233" stop-color="white" stop-opacity="0.0781197"/>
<stop offset="1" stop-color="white" stop-opacity="0"/>
</linearGradient>
<linearGradient id="paint3_linear" x1="152" y1="11.0599" x2="152" y2="203.226" gradientUnits="userSpaceOnUse">
<stop stop-color="white" stop-opacity="0.53"/>
<stop offset="1" stop-color="white" stop-opacity="0"/>
</linearGradient>
<clipPath id="clip0">
<rect width="276" height="276" fill="white" transform="translate(14 12)"/>
</clipPath>
<clipPath id="clip1">
<rect width="172.5" height="172.5" fill="white" transform="translate(65.75 63.75)"/>
</clipPath>
</defs>
</svg>
