<svg width="42" height="37" viewBox="0 0 42 37" fill="none" xmlns="http://www.w3.org/2000/svg">
<g filter="url(#filter0_d)">
<rect x="8" y="5.00012" width="28" height="24" rx="3" fill="white"/>
<rect x="8.5" y="5.50012" width="27" height="23" rx="2.5" stroke="#8E8E93"/>
</g>
<path fill-rule="evenodd" clip-rule="evenodd" d="M13 17.8657C13 17.5896 13.2239 17.3657 13.5 17.3657H28.5C28.7761 17.3657 29 17.5896 29 17.8657V17.8657C29 18.1419 28.7761 18.3657 28.5 18.3657H13.5C13.2239 18.3657 13 18.1419 13 17.8657V17.8657ZM13 20.8657C13 20.5896 13.2239 20.3657 13.5 20.3657H30.5C30.7761 20.3657 31 20.5896 31 20.8657V20.8657C31 21.1419 30.7761 21.3657 30.5 21.3657H13.5C13.2239 21.3657 13 21.1419 13 20.8657V20.8657ZM26 23.8657C26 23.5896 25.7761 23.3657 25.5 23.3657H13.5C13.2239 23.3657 13 23.5896 13 23.8657V23.8657C13 24.1419 13.2239 24.3657 13.5 24.3657H25.5C25.7761 24.3657 26 24.1419 26 23.8657V23.8657Z" fill="#C7C7CC"/>
<path d="M12.01 5.09172L10.2721 4.70223C10.2328 4.69058 10.1975 4.66819 10.1701 4.63757C10.1428 4.60696 10.1245 4.56933 10.1174 4.52891C10.1103 4.48849 10.1146 4.44689 10.1298 4.40877C10.145 4.37066 10.1705 4.33754 10.2035 4.31313L11.7034 3.35273L12.0929 1.61483C12.1045 1.57547 12.1269 1.54015 12.1575 1.51282C12.1882 1.48549 12.2258 1.46724 12.2662 1.46011C12.3066 1.45298 12.3482 1.45727 12.3863 1.47248C12.4245 1.48769 12.4576 1.51322 12.482 1.54622L13.4424 3.0461L15.1803 3.43559C15.2196 3.44724 15.255 3.46963 15.2823 3.50025C15.3096 3.53086 15.3279 3.56849 15.335 3.60891C15.3421 3.64932 15.3379 3.69093 15.3226 3.72904C15.3074 3.76716 15.2819 3.80028 15.2489 3.82469L13.749 4.78509L13.3595 6.52299C13.3479 6.56234 13.3255 6.59767 13.2949 6.625C13.2643 6.65233 13.2266 6.67058 13.1862 6.67771C13.1458 6.68483 13.1042 6.68055 13.0661 6.66534C13.028 6.65013 12.9948 6.62459 12.9704 6.5916L12.01 5.09172Z" fill="#FACD51"/>
<path d="M14.9755 11.7411L16.7134 12.1305C16.7528 12.1422 16.7881 12.1646 16.8155 12.1952C16.8428 12.2258 16.861 12.2634 16.8682 12.3039C16.8753 12.3443 16.871 12.3859 16.8558 12.424C16.8406 12.4621 16.8151 12.4952 16.7821 12.5196L15.2822 13.48L14.8927 15.2179C14.881 15.2573 14.8586 15.2926 14.828 15.32C14.7974 15.3473 14.7598 15.3655 14.7194 15.3727C14.679 15.3798 14.6373 15.3755 14.5992 15.3603C14.5611 15.3451 14.528 15.3195 14.5036 15.2866L13.5432 13.7867L11.8053 13.3972C11.7659 13.3855 11.7306 13.3631 11.7033 13.3325C11.6759 13.3019 11.6577 13.2643 11.6506 13.2239C11.6434 13.1834 11.6477 13.1418 11.6629 13.1037C11.6781 13.0656 11.7037 13.0325 11.7367 13.0081L13.2366 12.0477L13.626 10.3098C13.6377 10.2704 13.6601 10.2351 13.6907 10.2078C13.7213 10.1804 13.7589 10.1622 13.7994 10.1551C13.8398 10.1479 13.8814 10.1522 13.9195 10.1674C13.9576 10.1826 13.9907 10.2082 14.0151 10.2412L14.9755 11.7411Z" fill="#FACD51"/>
<path d="M12.4653 8.24393C12.5472 8.33573 12.6019 8.44854 12.6233 8.5697C12.6446 8.69087 12.6318 8.81558 12.5862 8.92986C12.5407 9.04414 12.4642 9.14347 12.3653 9.2167L9.76751 11.1434L8.84606 14.2434C8.81103 14.3613 8.74384 14.4672 8.65204 14.549C8.56023 14.6309 8.44743 14.6856 8.32628 14.707C8.20514 14.7283 8.08044 14.7155 7.96616 14.67C7.85189 14.6244 7.75255 14.548 7.67931 14.4491L5.75289 11.8513L2.65305 10.9292C2.53513 10.8942 2.4293 10.827 2.34742 10.7352C2.26555 10.6434 2.21086 10.5306 2.1895 10.4095C2.16814 10.2883 2.18095 10.1636 2.22648 10.0493C2.27202 9.93506 2.34849 9.83573 2.44732 9.76248L5.04486 7.83584L5.96663 4.73606C6.10968 4.25556 6.83462 4.12774 7.13338 4.53033L9.05948 7.12796L12.1596 8.04995C12.2775 8.08495 12.3834 8.15213 12.4653 8.24393Z" fill="#FACD51"/>
<path d="M12.01 5.09172L10.2721 4.70223C10.2328 4.69058 10.1975 4.66819 10.1701 4.63757C10.1428 4.60696 10.1245 4.56933 10.1174 4.52891C10.1103 4.48849 10.1146 4.44689 10.1298 4.40877C10.145 4.37066 10.1705 4.33754 10.2035 4.31313L11.7034 3.35273L12.0929 1.61483C12.1045 1.57547 12.1269 1.54015 12.1575 1.51282C12.1882 1.48549 12.2258 1.46724 12.2662 1.46011C12.3066 1.45298 12.3482 1.45727 12.3863 1.47248C12.4245 1.48769 12.4576 1.51322 12.482 1.54622L13.4424 3.0461L15.1803 3.43559C15.2196 3.44724 15.255 3.46963 15.2823 3.50025C15.3096 3.53086 15.3279 3.56849 15.335 3.60891C15.3421 3.64932 15.3379 3.69093 15.3226 3.72904C15.3074 3.76716 15.2819 3.80028 15.2489 3.82469L13.749 4.78509L13.3595 6.52299C13.3479 6.56234 13.3255 6.59767 13.2949 6.625C13.2643 6.65233 13.2266 6.67058 13.1862 6.67771C13.1458 6.68483 13.1042 6.68055 13.0661 6.66534C13.028 6.65013 12.9948 6.62459 12.9704 6.5916L12.01 5.09172Z" stroke="#E9B832"/>
<path d="M14.9755 11.7411L16.7134 12.1305C16.7528 12.1422 16.7881 12.1646 16.8155 12.1952C16.8428 12.2258 16.861 12.2634 16.8682 12.3039C16.8753 12.3443 16.871 12.3859 16.8558 12.424C16.8406 12.4621 16.8151 12.4952 16.7821 12.5196L15.2822 13.48L14.8927 15.2179C14.881 15.2573 14.8586 15.2926 14.828 15.32C14.7974 15.3473 14.7598 15.3655 14.7194 15.3727C14.679 15.3798 14.6373 15.3755 14.5992 15.3603C14.5611 15.3451 14.528 15.3195 14.5036 15.2866L13.5432 13.7867L11.8053 13.3972C11.7659 13.3855 11.7306 13.3631 11.7033 13.3325C11.6759 13.3019 11.6577 13.2643 11.6506 13.2239C11.6434 13.1834 11.6477 13.1418 11.6629 13.1037C11.6781 13.0656 11.7037 13.0325 11.7367 13.0081L13.2366 12.0477L13.626 10.3098C13.6377 10.2704 13.6601 10.2351 13.6907 10.2078C13.7213 10.1804 13.7589 10.1622 13.7994 10.1551C13.8398 10.1479 13.8814 10.1522 13.9195 10.1674C13.9576 10.1826 13.9907 10.2082 14.0151 10.2412L14.9755 11.7411Z" stroke="#E9B832"/>
<path d="M12.4653 8.24393C12.5472 8.33573 12.6019 8.44854 12.6233 8.5697C12.6446 8.69087 12.6318 8.81558 12.5862 8.92986C12.5407 9.04414 12.4642 9.14347 12.3653 9.2167L9.76751 11.1434L8.84606 14.2434C8.81103 14.3613 8.74384 14.4672 8.65204 14.549C8.56023 14.6309 8.44743 14.6856 8.32628 14.707C8.20514 14.7283 8.08044 14.7155 7.96616 14.67C7.85189 14.6244 7.75255 14.548 7.67931 14.4491L5.75289 11.8513L2.65305 10.9292C2.53513 10.8942 2.4293 10.827 2.34742 10.7352C2.26555 10.6434 2.21086 10.5306 2.1895 10.4095C2.16814 10.2883 2.18095 10.1636 2.22648 10.0493C2.27202 9.93506 2.34849 9.83573 2.44732 9.76248L5.04486 7.83584L5.96663 4.73606C6.10968 4.25556 6.83462 4.12774 7.13338 4.53033L9.05948 7.12796L12.1596 8.04995C12.2775 8.08495 12.3834 8.15213 12.4653 8.24393Z" stroke="#E9B832"/>
<defs>
<filter id="filter0_d" x="2" y="1.00012" width="40" height="36" filterUnits="userSpaceOnUse" color-interpolation-filters="sRGB">
<feFlood flood-opacity="0" result="BackgroundImageFix"/>
<feColorMatrix in="SourceAlpha" type="matrix" values="0 0 0 0 0 0 0 0 0 0 0 0 0 0 0 0 0 0 127 0"/>
<feOffset dy="2"/>
<feGaussianBlur stdDeviation="3"/>
<feColorMatrix type="matrix" values="0 0 0 0 0.145098 0 0 0 0 0.145098 0 0 0 0 0.14902 0 0 0 0.08 0"/>
<feBlend mode="normal" in2="BackgroundImageFix" result="effect1_dropShadow"/>
<feBlend mode="normal" in="SourceGraphic" in2="effect1_dropShadow" result="shape"/>
</filter>
</defs>
</svg>
