<svg width="36" height="39" viewBox="0 0 36 39" fill="none" xmlns="http://www.w3.org/2000/svg">
<g filter="url(#filter0_di)">
<rect x="8.36102" y="6.08997" width="21.278" height="24.5515" rx="4" fill="white"/>
<rect x="8.86102" y="6.58997" width="20.278" height="23.5515" rx="3.5" stroke="#8E8E93"/>
</g>
<g style="mix-blend-mode:multiply">
<rect x="23.9103" y="28.1863" width="3.27354" height="1.63677" fill="#E684AF"/>
</g>
<g filter="url(#filter1_d)">
<path d="M9.17938 13.4554H28.8206V24.5496C28.8206 25.6542 27.9252 26.5496 26.8206 26.5496H10.1794C9.6271 26.5496 9.17938 26.1019 9.17938 25.5496V13.4554Z" fill="white"/>
</g>
<g filter="url(#filter2_d)">
<path fill-rule="evenodd" clip-rule="evenodd" d="M7.54263 9.36346C7.09065 9.36346 6.72424 9.72987 6.72424 10.1818C6.72424 10.6338 7.09065 11.0002 7.54263 11.0002H10.8162C11.2681 11.0002 11.6346 10.6338 11.6346 10.1818C11.6346 9.72987 11.2681 9.36346 10.8162 9.36346H7.54263ZM7.54263 12.637C7.09065 12.637 6.72424 13.0034 6.72424 13.4554C6.72424 13.9074 7.09065 14.2738 7.54263 14.2738H10.8162C11.2681 14.2738 11.6346 13.9074 11.6346 13.4554C11.6346 13.0034 11.2681 12.637 10.8162 12.637H7.54263ZM6.72424 16.729C6.72424 16.277 7.09065 15.9106 7.54263 15.9106H10.8162C11.2681 15.9106 11.6346 16.277 11.6346 16.729C11.6346 17.1809 11.2681 17.5473 10.8162 17.5473H7.54263C7.09065 17.5473 6.72424 17.1809 6.72424 16.729ZM7.54263 19.1841C7.09065 19.1841 6.72424 19.5505 6.72424 20.0025C6.72424 20.4545 7.09065 20.8209 7.54263 20.8209H10.8162C11.2681 20.8209 11.6346 20.4545 11.6346 20.0025C11.6346 19.5505 11.2681 19.1841 10.8162 19.1841H7.54263ZM6.72424 23.276C6.72424 22.824 7.09065 22.4576 7.54263 22.4576H10.8162C11.2681 22.4576 11.6346 22.824 11.6346 23.276C11.6346 23.728 11.2681 24.0944 10.8162 24.0944H7.54263C7.09065 24.0944 6.72424 23.728 6.72424 23.276ZM7.54263 25.7312C7.09065 25.7312 6.72424 26.0976 6.72424 26.5496C6.72424 27.0015 7.09065 27.368 7.54263 27.368H10.8162C11.2681 27.368 11.6346 27.0015 11.6346 26.5496C11.6346 26.0976 11.2681 25.7312 10.8162 25.7312H7.54263Z" fill="#8E8E93"/>
</g>
<rect x="13.2713" y="14.2738" width="9.00223" height="1.63677" rx="0.818385" fill="#CC0F61"/>
<rect x="13.2713" y="17.5474" width="11.4574" height="1.63677" rx="0.818385" fill="#399391"/>
<rect x="13.2713" y="11.0002" width="11.4574" height="1.63677" rx="0.818385" fill="#E684AF"/>
<rect x="13.2713" y="20.8209" width="9.00223" height="1.63677" rx="0.818385" fill="#00D1B2"/>
<path d="M11.5939 5.09172L9.85602 4.70223C9.81667 4.69058 9.78135 4.66819 9.75402 4.63757C9.72669 4.60696 9.70843 4.56933 9.70131 4.52891C9.69418 4.48849 9.69846 4.44689 9.71367 4.40877C9.72888 4.37066 9.75442 4.33754 9.78741 4.31313L11.2873 3.35273L11.6768 1.61483C11.6884 1.57547 11.7108 1.54015 11.7414 1.51282C11.7721 1.48549 11.8097 1.46724 11.8501 1.46011C11.8905 1.45298 11.9321 1.45727 11.9702 1.47248C12.0084 1.48769 12.0415 1.51322 12.0659 1.54622L13.0263 3.0461L14.7642 3.43559C14.8035 3.44724 14.8389 3.46963 14.8662 3.50025C14.8935 3.53086 14.9118 3.56849 14.9189 3.60891C14.926 3.64932 14.9217 3.69093 14.9065 3.72904C14.8913 3.76716 14.8658 3.80028 14.8328 3.82469L13.3329 4.78509L12.9434 6.52299C12.9318 6.56234 12.9094 6.59767 12.8788 6.625C12.8482 6.65233 12.8105 6.67058 12.7701 6.67771C12.7297 6.68483 12.6881 6.68055 12.65 6.66534C12.6119 6.65013 12.5787 6.62459 12.5543 6.5916L11.5939 5.09172Z" fill="#FACD51"/>
<path d="M14.5594 11.7411L16.2973 12.1305C16.3367 12.1422 16.372 12.1646 16.3993 12.1952C16.4267 12.2258 16.4449 12.2634 16.4521 12.3039C16.4592 12.3443 16.4549 12.3859 16.4397 12.424C16.4245 12.4621 16.3989 12.4952 16.366 12.5196L14.8661 13.48L14.4766 15.2179C14.4649 15.2573 14.4425 15.2926 14.4119 15.32C14.3813 15.3473 14.3437 15.3655 14.3033 15.3727C14.2628 15.3798 14.2212 15.3755 14.1831 15.3603C14.145 15.3451 14.1119 15.3195 14.0875 15.2866L13.1271 13.7867L11.3892 13.3972C11.3498 13.3855 11.3145 13.3631 11.2872 13.3325C11.2598 13.3019 11.2416 13.2643 11.2345 13.2239C11.2273 13.1834 11.2316 13.1418 11.2468 13.1037C11.262 13.0656 11.2876 13.0325 11.3206 13.0081L12.8204 12.0477L13.2099 10.3098C13.2216 10.2704 13.244 10.2351 13.2746 10.2078C13.3052 10.1804 13.3428 10.1622 13.3833 10.1551C13.4237 10.1479 13.4653 10.1522 13.5034 10.1674C13.5415 10.1826 13.5746 10.2082 13.599 10.2412L14.5594 11.7411Z" fill="#FACD51"/>
<path d="M12.0492 8.24393C12.1311 8.33573 12.1858 8.44854 12.2072 8.5697C12.2285 8.69087 12.2157 8.81558 12.1701 8.92986C12.1246 9.04414 12.0481 9.14347 11.9492 9.2167L9.3514 11.1434L8.42995 14.2434C8.39492 14.3613 8.32774 14.4672 8.23593 14.549C8.14412 14.6309 8.03132 14.6856 7.91017 14.707C7.78903 14.7283 7.66433 14.7155 7.55005 14.67C7.43578 14.6244 7.33645 14.548 7.2632 14.4491L5.33678 11.8513L2.23695 10.9292C2.11902 10.8942 2.01319 10.827 1.93132 10.7352C1.84944 10.6434 1.79475 10.5306 1.77339 10.4095C1.75203 10.2883 1.76484 10.1636 1.81038 10.0493C1.85592 9.93506 1.93239 9.83573 2.03122 9.76248L4.62875 7.83584L5.55052 4.73606C5.69357 4.25556 6.41851 4.12774 6.71728 4.53033L8.64337 7.12796L11.7435 8.04995C11.8614 8.08495 11.9673 8.15213 12.0492 8.24393Z" fill="#FACD51"/>
<path d="M11.5939 5.09172L9.85602 4.70223C9.81667 4.69058 9.78135 4.66819 9.75402 4.63757C9.72669 4.60696 9.70843 4.56933 9.70131 4.52891C9.69418 4.48849 9.69846 4.44689 9.71367 4.40877C9.72888 4.37066 9.75442 4.33754 9.78741 4.31313L11.2873 3.35273L11.6768 1.61483C11.6884 1.57547 11.7108 1.54015 11.7414 1.51282C11.7721 1.48549 11.8097 1.46724 11.8501 1.46011C11.8905 1.45298 11.9321 1.45727 11.9702 1.47248C12.0084 1.48769 12.0415 1.51322 12.0659 1.54622L13.0263 3.0461L14.7642 3.43559C14.8035 3.44724 14.8389 3.46963 14.8662 3.50025C14.8935 3.53086 14.9118 3.56849 14.9189 3.60891C14.926 3.64932 14.9217 3.69093 14.9065 3.72904C14.8913 3.76716 14.8658 3.80028 14.8328 3.82469L13.3329 4.78509L12.9434 6.52299C12.9318 6.56234 12.9094 6.59767 12.8788 6.625C12.8482 6.65233 12.8105 6.67058 12.7701 6.67771C12.7297 6.68483 12.6881 6.68055 12.65 6.66534C12.6119 6.65013 12.5787 6.62459 12.5543 6.5916L11.5939 5.09172Z" stroke="#E9B832"/>
<path d="M14.5594 11.7411L16.2973 12.1305C16.3367 12.1422 16.372 12.1646 16.3993 12.1952C16.4267 12.2258 16.4449 12.2634 16.4521 12.3039C16.4592 12.3443 16.4549 12.3859 16.4397 12.424C16.4245 12.4621 16.3989 12.4952 16.366 12.5196L14.8661 13.48L14.4766 15.2179C14.4649 15.2573 14.4425 15.2926 14.4119 15.32C14.3813 15.3473 14.3437 15.3655 14.3033 15.3727C14.2628 15.3798 14.2212 15.3755 14.1831 15.3603C14.145 15.3451 14.1119 15.3195 14.0875 15.2866L13.1271 13.7867L11.3892 13.3972C11.3498 13.3855 11.3145 13.3631 11.2872 13.3325C11.2598 13.3019 11.2416 13.2643 11.2345 13.2239C11.2273 13.1834 11.2316 13.1418 11.2468 13.1037C11.262 13.0656 11.2876 13.0325 11.3206 13.0081L12.8204 12.0477L13.2099 10.3098C13.2216 10.2704 13.244 10.2351 13.2746 10.2078C13.3052 10.1804 13.3428 10.1622 13.3833 10.1551C13.4237 10.1479 13.4653 10.1522 13.5034 10.1674C13.5415 10.1826 13.5746 10.2082 13.599 10.2412L14.5594 11.7411Z" stroke="#E9B832"/>
<path d="M12.0492 8.24393C12.1311 8.33573 12.1858 8.44854 12.2072 8.5697C12.2285 8.69087 12.2157 8.81558 12.1701 8.92986C12.1246 9.04414 12.0481 9.14347 11.9492 9.2167L9.3514 11.1434L8.42995 14.2434C8.39492 14.3613 8.32774 14.4672 8.23593 14.549C8.14412 14.6309 8.03132 14.6856 7.91017 14.707C7.78903 14.7283 7.66433 14.7155 7.55005 14.67C7.43578 14.6244 7.33645 14.548 7.2632 14.4491L5.33678 11.8513L2.23695 10.9292C2.11902 10.8942 2.01319 10.827 1.93132 10.7352C1.84944 10.6434 1.79475 10.5306 1.77339 10.4095C1.75203 10.2883 1.76484 10.1636 1.81038 10.0493C1.85592 9.93506 1.93239 9.83573 2.03122 9.76248L4.62875 7.83584L5.55052 4.73606C5.69357 4.25556 6.41851 4.12774 6.71728 4.53033L8.64337 7.12796L11.7435 8.04995C11.8614 8.08495 11.9673 8.15213 12.0492 8.24393Z" stroke="#E9B832"/>
<defs>
<filter id="filter0_di" x="2.36102" y="2.08997" width="33.278" height="36.5515" filterUnits="userSpaceOnUse" color-interpolation-filters="sRGB">
<feFlood flood-opacity="0" result="BackgroundImageFix"/>
<feColorMatrix in="SourceAlpha" type="matrix" values="0 0 0 0 0 0 0 0 0 0 0 0 0 0 0 0 0 0 127 0"/>
<feOffset dy="2"/>
<feGaussianBlur stdDeviation="3"/>
<feColorMatrix type="matrix" values="0 0 0 0 0.145098 0 0 0 0 0.145098 0 0 0 0 0.14902 0 0 0 0.08 0"/>
<feBlend mode="normal" in2="BackgroundImageFix" result="effect1_dropShadow"/>
<feBlend mode="normal" in="SourceGraphic" in2="effect1_dropShadow" result="shape"/>
<feColorMatrix in="SourceAlpha" type="matrix" values="0 0 0 0 0 0 0 0 0 0 0 0 0 0 0 0 0 0 127 0" result="hardAlpha"/>
<feOffset dy="-4"/>
<feComposite in2="hardAlpha" operator="arithmetic" k2="-1" k3="1"/>
<feColorMatrix type="matrix" values="0 0 0 0 0.898039 0 0 0 0 0.898039 0 0 0 0 0.917647 0 0 0 1 0"/>
<feBlend mode="normal" in2="shape" result="effect2_innerShadow"/>
</filter>
<filter id="filter1_d" x="9.17938" y="13.4554" width="19.6412" height="14.0942" filterUnits="userSpaceOnUse" color-interpolation-filters="sRGB">
<feFlood flood-opacity="0" result="BackgroundImageFix"/>
<feColorMatrix in="SourceAlpha" type="matrix" values="0 0 0 0 0 0 0 0 0 0 0 0 0 0 0 0 0 0 127 0"/>
<feOffset dy="1"/>
<feColorMatrix type="matrix" values="0 0 0 0 0.780392 0 0 0 0 0.780392 0 0 0 0 0.8 0 0 0 1 0"/>
<feBlend mode="normal" in2="BackgroundImageFix" result="effect1_dropShadow"/>
<feBlend mode="normal" in="SourceGraphic" in2="effect1_dropShadow" result="shape"/>
</filter>
<filter id="filter2_d" x="0.724243" y="5.36346" width="16.9103" height="30.0045" filterUnits="userSpaceOnUse" color-interpolation-filters="sRGB">
<feFlood flood-opacity="0" result="BackgroundImageFix"/>
<feColorMatrix in="SourceAlpha" type="matrix" values="0 0 0 0 0 0 0 0 0 0 0 0 0 0 0 0 0 0 127 0"/>
<feOffset dy="2"/>
<feGaussianBlur stdDeviation="3"/>
<feColorMatrix type="matrix" values="0 0 0 0 0.145098 0 0 0 0 0.145098 0 0 0 0 0.14902 0 0 0 0.08 0"/>
<feBlend mode="normal" in2="BackgroundImageFix" result="effect1_dropShadow"/>
<feBlend mode="normal" in="SourceGraphic" in2="effect1_dropShadow" result="shape"/>
</filter>
</defs>
</svg>
