<svg width="300" height="300" viewBox="0 0 300 300" fill="none" xmlns="http://www.w3.org/2000/svg">
<g clip-path="url(#clip0)">
<g filter="url(#filter0_d)">
<circle cx="150" cy="150" r="150" fill="url(#paint0_linear)"/>
</g>
<g filter="url(#filter1_di)">
<circle cx="150" cy="150" r="138.249" fill="white"/>
</g>
<g filter="url(#filter2_dddddii)">
<path d="M150 195.611V104.39L111.918 82.403C103.14 77.3352 92.168 83.67 92.168 93.8057V206.195C92.168 216.331 103.14 222.666 111.918 217.598L150 195.611Z" fill="url(#paint1_linear)"/>
<path d="M150 195.611V104.39L111.918 82.403C103.14 77.3352 92.168 83.67 92.168 93.8057V206.195C92.168 216.331 103.14 222.666 111.918 217.598L150 195.611Z" fill="url(#paint2_linear)"/>
<path d="M150 195.611V104.39L111.918 82.403C103.14 77.3352 92.168 83.67 92.168 93.8057V206.195C92.168 216.331 103.14 222.666 111.918 217.598L150 195.611Z" fill="url(#paint3_linear)"/>
<path d="M150 195.611V104.39L111.918 82.403C103.14 77.3352 92.168 83.67 92.168 93.8057V206.195C92.168 216.331 103.14 222.666 111.918 217.598L150 195.611Z" fill="url(#paint4_linear)"/>
<path d="M213.365 139.302C211.547 139.302 210.073 140.776 210.073 142.594V157.406C210.073 159.224 211.547 160.698 213.365 160.698C215.183 160.698 216.656 159.224 216.656 157.406V142.594C216.656 140.776 215.183 139.302 213.365 139.302Z" fill="url(#paint5_linear)"/>
<path d="M213.365 139.302C211.547 139.302 210.073 140.776 210.073 142.594V157.406C210.073 159.224 211.547 160.698 213.365 160.698C215.183 160.698 216.656 159.224 216.656 157.406V142.594C216.656 140.776 215.183 139.302 213.365 139.302Z" fill="url(#paint6_linear)"/>
<path d="M213.365 139.302C211.547 139.302 210.073 140.776 210.073 142.594V157.406C210.073 159.224 211.547 160.698 213.365 160.698C215.183 160.698 216.656 159.224 216.656 157.406V142.594C216.656 140.776 215.183 139.302 213.365 139.302Z" fill="url(#paint7_linear)"/>
<path d="M213.365 139.302C211.547 139.302 210.073 140.776 210.073 142.594V157.406C210.073 159.224 211.547 160.698 213.365 160.698C215.183 160.698 216.656 159.224 216.656 157.406V142.594C216.656 140.776 215.183 139.302 213.365 139.302Z" fill="url(#paint8_linear)"/>
<path d="M196.906 136.628C196.906 134.81 198.38 133.336 200.198 133.336C202.016 133.336 203.49 134.81 203.49 136.628V163.372C203.49 165.19 202.016 166.664 200.198 166.664C198.38 166.664 196.906 165.19 196.906 163.372V136.628Z" fill="url(#paint9_linear)"/>
<path d="M196.906 136.628C196.906 134.81 198.38 133.336 200.198 133.336C202.016 133.336 203.49 134.81 203.49 136.628V163.372C203.49 165.19 202.016 166.664 200.198 166.664C198.38 166.664 196.906 165.19 196.906 163.372V136.628Z" fill="url(#paint10_linear)"/>
<path d="M196.906 136.628C196.906 134.81 198.38 133.336 200.198 133.336C202.016 133.336 203.49 134.81 203.49 136.628V163.372C203.49 165.19 202.016 166.664 200.198 166.664C198.38 166.664 196.906 165.19 196.906 163.372V136.628Z" fill="url(#paint11_linear)"/>
<path d="M196.906 136.628C196.906 134.81 198.38 133.336 200.198 133.336C202.016 133.336 203.49 134.81 203.49 136.628V163.372C203.49 165.19 202.016 166.664 200.198 166.664C198.38 166.664 196.906 165.19 196.906 163.372V136.628Z" fill="url(#paint12_linear)"/>
<path d="M187.031 125.93C185.213 125.93 183.74 127.403 183.74 129.221V170.779C183.74 172.597 185.213 174.07 187.031 174.07C188.849 174.07 190.323 172.597 190.323 170.779V129.221C190.323 127.403 188.849 125.93 187.031 125.93Z" fill="url(#paint13_linear)"/>
<path d="M187.031 125.93C185.213 125.93 183.74 127.403 183.74 129.221V170.779C183.74 172.597 185.213 174.07 187.031 174.07C188.849 174.07 190.323 172.597 190.323 170.779V129.221C190.323 127.403 188.849 125.93 187.031 125.93Z" fill="url(#paint14_linear)"/>
<path d="M187.031 125.93C185.213 125.93 183.74 127.403 183.74 129.221V170.779C183.74 172.597 185.213 174.07 187.031 174.07C188.849 174.07 190.323 172.597 190.323 170.779V129.221C190.323 127.403 188.849 125.93 187.031 125.93Z" fill="url(#paint15_linear)"/>
<path d="M187.031 125.93C185.213 125.93 183.74 127.403 183.74 129.221V170.779C183.74 172.597 185.213 174.07 187.031 174.07C188.849 174.07 190.323 172.597 190.323 170.779V129.221C190.323 127.403 188.849 125.93 187.031 125.93Z" fill="url(#paint16_linear)"/>
<path d="M170.573 120.992C170.573 119.174 172.047 117.7 173.865 117.7C175.683 117.7 177.156 119.174 177.156 120.992V179.008C177.156 180.826 175.683 182.299 173.865 182.299C172.047 182.299 170.573 180.826 170.573 179.008V120.992Z" fill="url(#paint17_linear)"/>
<path d="M170.573 120.992C170.573 119.174 172.047 117.7 173.865 117.7C175.683 117.7 177.156 119.174 177.156 120.992V179.008C177.156 180.826 175.683 182.299 173.865 182.299C172.047 182.299 170.573 180.826 170.573 179.008V120.992Z" fill="url(#paint18_linear)"/>
<path d="M170.573 120.992C170.573 119.174 172.047 117.7 173.865 117.7C175.683 117.7 177.156 119.174 177.156 120.992V179.008C177.156 180.826 175.683 182.299 173.865 182.299C172.047 182.299 170.573 180.826 170.573 179.008V120.992Z" fill="url(#paint19_linear)"/>
<path d="M170.573 120.992C170.573 119.174 172.047 117.7 173.865 117.7C175.683 117.7 177.156 119.174 177.156 120.992V179.008C177.156 180.826 175.683 182.299 173.865 182.299C172.047 182.299 170.573 180.826 170.573 179.008V120.992Z" fill="url(#paint20_linear)"/>
<path d="M160.698 110.088C158.88 110.088 157.406 111.562 157.406 113.38V186.62C157.406 188.438 158.88 189.911 160.698 189.911C162.516 189.911 163.99 188.438 163.99 186.62V113.38C163.99 111.562 162.516 110.088 160.698 110.088Z" fill="url(#paint21_linear)"/>
<path d="M160.698 110.088C158.88 110.088 157.406 111.562 157.406 113.38V186.62C157.406 188.438 158.88 189.911 160.698 189.911C162.516 189.911 163.99 188.438 163.99 186.62V113.38C163.99 111.562 162.516 110.088 160.698 110.088Z" fill="url(#paint22_linear)"/>
<path d="M160.698 110.088C158.88 110.088 157.406 111.562 157.406 113.38V186.62C157.406 188.438 158.88 189.911 160.698 189.911C162.516 189.911 163.99 188.438 163.99 186.62V113.38C163.99 111.562 162.516 110.088 160.698 110.088Z" fill="url(#paint23_linear)"/>
<path d="M160.698 110.088C158.88 110.088 157.406 111.562 157.406 113.38V186.62C157.406 188.438 158.88 189.911 160.698 189.911C162.516 189.911 163.99 188.438 163.99 186.62V113.38C163.99 111.562 162.516 110.088 160.698 110.088Z" fill="url(#paint24_linear)"/>
</g>
</g>
<defs>
<filter id="filter0_d" x="-2" y="0" width="304" height="304" filterUnits="userSpaceOnUse" color-interpolation-filters="sRGB">
<feFlood flood-opacity="0" result="BackgroundImageFix"/>
<feColorMatrix in="SourceAlpha" type="matrix" values="0 0 0 0 0 0 0 0 0 0 0 0 0 0 0 0 0 0 127 0"/>
<feOffset dy="2"/>
<feGaussianBlur stdDeviation="1"/>
<feColorMatrix type="matrix" values="0 0 0 0 0 0 0 0 0 0 0 0 0 0 0 0 0 0 0.15 0"/>
<feBlend mode="normal" in2="BackgroundImageFix" result="effect1_dropShadow"/>
<feBlend mode="normal" in="SourceGraphic" in2="effect1_dropShadow" result="shape"/>
</filter>
<filter id="filter1_di" x="9.75122" y="7.7511" width="280.498" height="280.498" filterUnits="userSpaceOnUse" color-interpolation-filters="sRGB">
<feFlood flood-opacity="0" result="BackgroundImageFix"/>
<feColorMatrix in="SourceAlpha" type="matrix" values="0 0 0 0 0 0 0 0 0 0 0 0 0 0 0 0 0 0 127 0"/>
<feOffset dy="-2"/>
<feGaussianBlur stdDeviation="1"/>
<feColorMatrix type="matrix" values="0 0 0 0 0 0 0 0 0 0 0 0 0 0 0 0 0 0 0.15 0"/>
<feBlend mode="normal" in2="BackgroundImageFix" result="effect1_dropShadow"/>
<feBlend mode="normal" in="SourceGraphic" in2="effect1_dropShadow" result="shape"/>
<feColorMatrix in="SourceAlpha" type="matrix" values="0 0 0 0 0 0 0 0 0 0 0 0 0 0 0 0 0 0 127 0" result="hardAlpha"/>
<feOffset/>
<feGaussianBlur stdDeviation="2"/>
<feComposite in2="hardAlpha" operator="arithmetic" k2="-1" k3="1"/>
<feColorMatrix type="matrix" values="0 0 0 0 0 0 0 0 0 0 0 0 0 0 0 0 0 0 0.12 0"/>
<feBlend mode="normal" in2="shape" result="effect2_innerShadow"/>
</filter>
<filter id="filter2_dddddii" x="72.168" y="60.6194" width="168.488" height="174.762" filterUnits="userSpaceOnUse" color-interpolation-filters="sRGB">
<feFlood flood-opacity="0" result="BackgroundImageFix"/>
<feColorMatrix in="SourceAlpha" type="matrix" values="0 0 0 0 0 0 0 0 0 0 0 0 0 0 0 0 0 0 127 0"/>
<feOffset dy="4"/>
<feGaussianBlur stdDeviation="4"/>
<feColorMatrix type="matrix" values="0 0 0 0 0.176471 0 0 0 0 0.454902 0 0 0 0 0.870588 0 0 0 0.12 0"/>
<feBlend mode="normal" in2="BackgroundImageFix" result="effect1_dropShadow"/>
<feColorMatrix in="SourceAlpha" type="matrix" values="0 0 0 0 0 0 0 0 0 0 0 0 0 0 0 0 0 0 127 0"/>
<feOffset dx="8" dy="-4"/>
<feGaussianBlur stdDeviation="8"/>
<feColorMatrix type="matrix" values="0 0 0 0 0.929412 0 0 0 0 0.466667 0 0 0 0 0.882353 0 0 0 0.12 0"/>
<feBlend mode="normal" in2="effect1_dropShadow" result="effect2_dropShadow"/>
<feColorMatrix in="SourceAlpha" type="matrix" values="0 0 0 0 0 0 0 0 0 0 0 0 0 0 0 0 0 0 127 0"/>
<feOffset dx="-8" dy="4"/>
<feGaussianBlur stdDeviation="6"/>
<feColorMatrix type="matrix" values="0 0 0 0 0.431373 0 0 0 0 0.937255 0 0 0 0 0.901961 0 0 0 0.12 0"/>
<feBlend mode="normal" in2="effect2_dropShadow" result="effect3_dropShadow"/>
<feColorMatrix in="SourceAlpha" type="matrix" values="0 0 0 0 0 0 0 0 0 0 0 0 0 0 0 0 0 0 127 0"/>
<feOffset dy="2"/>
<feGaussianBlur stdDeviation="2"/>
<feColorMatrix type="matrix" values="0 0 0 0 0 0 0 0 0 0 0 0 0 0 0 0 0 0 0.2 0"/>
<feBlend mode="normal" in2="effect3_dropShadow" result="effect4_dropShadow"/>
<feColorMatrix in="SourceAlpha" type="matrix" values="0 0 0 0 0 0 0 0 0 0 0 0 0 0 0 0 0 0 127 0"/>
<feOffset/>
<feGaussianBlur stdDeviation="4"/>
<feColorMatrix type="matrix" values="0 0 0 0 1 0 0 0 0 1 0 0 0 0 1 0 0 0 0.5 0"/>
<feBlend mode="normal" in2="effect4_dropShadow" result="effect5_dropShadow"/>
<feBlend mode="normal" in="SourceGraphic" in2="effect5_dropShadow" result="shape"/>
<feColorMatrix in="SourceAlpha" type="matrix" values="0 0 0 0 0 0 0 0 0 0 0 0 0 0 0 0 0 0 127 0" result="hardAlpha"/>
<feOffset dy="4"/>
<feGaussianBlur stdDeviation="4"/>
<feComposite in2="hardAlpha" operator="arithmetic" k2="-1" k3="1"/>
<feColorMatrix type="matrix" values="0 0 0 0 1 0 0 0 0 1 0 0 0 0 1 0 0 0 0.3 0"/>
<feBlend mode="normal" in2="shape" result="effect6_innerShadow"/>
<feColorMatrix in="SourceAlpha" type="matrix" values="0 0 0 0 0 0 0 0 0 0 0 0 0 0 0 0 0 0 127 0" result="hardAlpha"/>
<feOffset dy="-2"/>
<feGaussianBlur stdDeviation="2"/>
<feComposite in2="hardAlpha" operator="arithmetic" k2="-1" k3="1"/>
<feColorMatrix type="matrix" values="0 0 0 0 0 0 0 0 0 0 0 0 0 0 0 0 0 0 0.12 0"/>
<feBlend mode="normal" in2="effect6_innerShadow" result="effect7_innerShadow"/>
</filter>
<linearGradient id="paint0_linear" x1="150" y1="0" x2="150" y2="300" gradientUnits="userSpaceOnUse">
<stop stop-color="white"/>
<stop offset="1" stop-color="#EAEFF1"/>
</linearGradient>
<linearGradient id="paint1_linear" x1="203.72" y1="138.413" x2="84.8223" y2="206.566" gradientUnits="userSpaceOnUse">
<stop stop-color="#ED77E1"/>
<stop offset="1" stop-color="#2D74DE"/>
</linearGradient>
<linearGradient id="paint2_linear" x1="85.22" y1="80.6194" x2="162.226" y2="143.402" gradientUnits="userSpaceOnUse">
<stop stop-color="#6EEFE6" stop-opacity="0.46"/>
<stop offset="0.0001" stop-color="#6EEFE6"/>
<stop offset="1" stop-color="#6EEFE6" stop-opacity="0"/>
</linearGradient>
<linearGradient id="paint3_linear" x1="174.753" y1="213.727" x2="129.665" y2="154.669" gradientUnits="userSpaceOnUse">
<stop stop-color="#916CF6"/>
<stop offset="1" stop-color="#916CF6" stop-opacity="0"/>
</linearGradient>
<linearGradient id="paint4_linear" x1="202.14" y1="98.9133" x2="123.14" y2="191.08" gradientUnits="userSpaceOnUse">
<stop stop-color="#ED77E1"/>
<stop offset="1" stop-color="#ED77E1" stop-opacity="0"/>
</linearGradient>
<linearGradient id="paint5_linear" x1="203.72" y1="138.413" x2="84.8223" y2="206.566" gradientUnits="userSpaceOnUse">
<stop stop-color="#ED77E1"/>
<stop offset="1" stop-color="#2D74DE"/>
</linearGradient>
<linearGradient id="paint6_linear" x1="85.22" y1="80.6194" x2="162.226" y2="143.402" gradientUnits="userSpaceOnUse">
<stop stop-color="#6EEFE6" stop-opacity="0.46"/>
<stop offset="0.0001" stop-color="#6EEFE6"/>
<stop offset="1" stop-color="#6EEFE6" stop-opacity="0"/>
</linearGradient>
<linearGradient id="paint7_linear" x1="174.753" y1="213.727" x2="129.665" y2="154.669" gradientUnits="userSpaceOnUse">
<stop stop-color="#916CF6"/>
<stop offset="1" stop-color="#916CF6" stop-opacity="0"/>
</linearGradient>
<linearGradient id="paint8_linear" x1="202.14" y1="98.9133" x2="123.14" y2="191.08" gradientUnits="userSpaceOnUse">
<stop stop-color="#ED77E1"/>
<stop offset="1" stop-color="#ED77E1" stop-opacity="0"/>
</linearGradient>
<linearGradient id="paint9_linear" x1="203.72" y1="138.413" x2="84.8223" y2="206.566" gradientUnits="userSpaceOnUse">
<stop stop-color="#ED77E1"/>
<stop offset="1" stop-color="#2D74DE"/>
</linearGradient>
<linearGradient id="paint10_linear" x1="85.22" y1="80.6194" x2="162.226" y2="143.402" gradientUnits="userSpaceOnUse">
<stop stop-color="#6EEFE6" stop-opacity="0.46"/>
<stop offset="0.0001" stop-color="#6EEFE6"/>
<stop offset="1" stop-color="#6EEFE6" stop-opacity="0"/>
</linearGradient>
<linearGradient id="paint11_linear" x1="174.753" y1="213.727" x2="129.665" y2="154.669" gradientUnits="userSpaceOnUse">
<stop stop-color="#916CF6"/>
<stop offset="1" stop-color="#916CF6" stop-opacity="0"/>
</linearGradient>
<linearGradient id="paint12_linear" x1="202.14" y1="98.9133" x2="123.14" y2="191.08" gradientUnits="userSpaceOnUse">
<stop stop-color="#ED77E1"/>
<stop offset="1" stop-color="#ED77E1" stop-opacity="0"/>
</linearGradient>
<linearGradient id="paint13_linear" x1="203.72" y1="138.413" x2="84.8223" y2="206.566" gradientUnits="userSpaceOnUse">
<stop stop-color="#ED77E1"/>
<stop offset="1" stop-color="#2D74DE"/>
</linearGradient>
<linearGradient id="paint14_linear" x1="85.22" y1="80.6194" x2="162.226" y2="143.402" gradientUnits="userSpaceOnUse">
<stop stop-color="#6EEFE6" stop-opacity="0.46"/>
<stop offset="0.0001" stop-color="#6EEFE6"/>
<stop offset="1" stop-color="#6EEFE6" stop-opacity="0"/>
</linearGradient>
<linearGradient id="paint15_linear" x1="174.753" y1="213.727" x2="129.665" y2="154.669" gradientUnits="userSpaceOnUse">
<stop stop-color="#916CF6"/>
<stop offset="1" stop-color="#916CF6" stop-opacity="0"/>
</linearGradient>
<linearGradient id="paint16_linear" x1="202.14" y1="98.9133" x2="123.14" y2="191.08" gradientUnits="userSpaceOnUse">
<stop stop-color="#ED77E1"/>
<stop offset="1" stop-color="#ED77E1" stop-opacity="0"/>
</linearGradient>
<linearGradient id="paint17_linear" x1="203.72" y1="138.413" x2="84.8223" y2="206.566" gradientUnits="userSpaceOnUse">
<stop stop-color="#ED77E1"/>
<stop offset="1" stop-color="#2D74DE"/>
</linearGradient>
<linearGradient id="paint18_linear" x1="85.22" y1="80.6194" x2="162.226" y2="143.402" gradientUnits="userSpaceOnUse">
<stop stop-color="#6EEFE6" stop-opacity="0.46"/>
<stop offset="0.0001" stop-color="#6EEFE6"/>
<stop offset="1" stop-color="#6EEFE6" stop-opacity="0"/>
</linearGradient>
<linearGradient id="paint19_linear" x1="174.753" y1="213.727" x2="129.665" y2="154.669" gradientUnits="userSpaceOnUse">
<stop stop-color="#916CF6"/>
<stop offset="1" stop-color="#916CF6" stop-opacity="0"/>
</linearGradient>
<linearGradient id="paint20_linear" x1="202.14" y1="98.9133" x2="123.14" y2="191.08" gradientUnits="userSpaceOnUse">
<stop stop-color="#ED77E1"/>
<stop offset="1" stop-color="#ED77E1" stop-opacity="0"/>
</linearGradient>
<linearGradient id="paint21_linear" x1="203.72" y1="138.413" x2="84.8223" y2="206.566" gradientUnits="userSpaceOnUse">
<stop stop-color="#ED77E1"/>
<stop offset="1" stop-color="#2D74DE"/>
</linearGradient>
<linearGradient id="paint22_linear" x1="85.22" y1="80.6194" x2="162.226" y2="143.402" gradientUnits="userSpaceOnUse">
<stop stop-color="#6EEFE6" stop-opacity="0.46"/>
<stop offset="0.0001" stop-color="#6EEFE6"/>
<stop offset="1" stop-color="#6EEFE6" stop-opacity="0"/>
</linearGradient>
<linearGradient id="paint23_linear" x1="174.753" y1="213.727" x2="129.665" y2="154.669" gradientUnits="userSpaceOnUse">
<stop stop-color="#916CF6"/>
<stop offset="1" stop-color="#916CF6" stop-opacity="0"/>
</linearGradient>
<linearGradient id="paint24_linear" x1="202.14" y1="98.9133" x2="123.14" y2="191.08" gradientUnits="userSpaceOnUse">
<stop stop-color="#ED77E1"/>
<stop offset="1" stop-color="#ED77E1" stop-opacity="0"/>
</linearGradient>
<clipPath id="clip0">
<rect width="300" height="300" fill="white"/>
</clipPath>
</defs>
</svg>
