<svg width="64" height="64" viewBox="0 0 64 64" fill="none" xmlns="http://www.w3.org/2000/svg">
<g clip-path="url(#clip0)">
<g filter="url(#filter0_i)">
<path fill-rule="evenodd" clip-rule="evenodd" d="M14.9337 0.332533C13.2871 0.148888 11.8033 1.33489 11.6197 2.98153L6.86839 45.5836L5.62611 50.0909C5.18587 51.6882 6.12386 53.3399 7.72115 53.7802L8.32303 53.946C8.42018 53.9783 8.51972 54.0058 8.62141 54.0283L41.909 63.2028C43.5063 63.6431 45.158 62.7051 45.5982 61.1078L46.7092 57.0772C47.135 56.6216 47.423 56.0299 47.4974 55.3626L47.712 53.4387L58.3739 14.7546C58.8141 13.1573 57.8762 11.5055 56.2789 11.0653L52.5523 10.0382L52.8267 7.57723C53.0104 5.93058 51.8244 4.44684 50.1777 4.26319L14.9337 0.332533Z" fill="white"/>
</g>
<rect x="11.9522" width="41.4626" height="54.0816" rx="3" transform="rotate(6.36372 11.9522 0)" fill="#E7E8E9"/>
<g filter="url(#filter1_i)">
<rect x="19.1989" y="0.845459" width="41.4626" height="54.0816" rx="3" transform="rotate(15.409 19.1989 0.845459)" fill="#00D1B2"/>
</g>
<g filter="url(#filter2_i)">
<rect x="19.1989" y="0.845459" width="41.4626" height="54.0816" rx="3" transform="rotate(15.409 19.1989 0.845459)" fill="url(#paint0_linear)"/>
</g>
<rect x="14.0528" y="33.0861" width="34.2517" height="5.40816" rx="2.70408" transform="rotate(15.409 14.0528 33.0861)" fill="white"/>
<rect x="11.6578" y="41.7756" width="21.6326" height="5.40816" rx="2.70408" transform="rotate(15.409 11.6578 41.7756)" fill="white"/>
<path d="M26.382 31.0325C27.4302 31.3217 28.501 31.5216 29.583 31.6301L30.7781 27.2941C29.7613 27.397 28.7341 27.2975 27.7559 27.0014C23.9628 25.9559 22.5869 22.7366 23.5426 19.2692C24.4983 15.8018 27.6073 13.899 30.8847 14.8023C31.7014 15.0025 32.4665 15.3735 33.1293 15.8909C33.7921 16.4084 34.3376 17.0605 34.7299 17.8043L38.6074 15.2591C37.414 13.2582 34.8835 11.4728 31.8504 10.6368C25.9538 9.01152 20.2746 11.7099 18.5614 17.9254C16.8781 24.0323 20.2072 29.3305 26.382 31.0325Z" fill="white"/>
<path d="M30.827 27.2492L35.1154 28.4312L37.1166 21.1708L29.1437 18.9732L28.1038 22.7459L31.7883 23.7615L30.827 27.2492Z" fill="white"/>
</g>
<defs>
<filter id="filter0_i" x="5.51752" y="0.313782" width="52.965" height="62.9977" filterUnits="userSpaceOnUse" color-interpolation-filters="sRGB">
<feFlood flood-opacity="0" result="BackgroundImageFix"/>
<feBlend mode="normal" in="SourceGraphic" in2="BackgroundImageFix" result="shape"/>
<feColorMatrix in="SourceAlpha" type="matrix" values="0 0 0 0 0 0 0 0 0 0 0 0 0 0 0 0 0 0 127 0" result="hardAlpha"/>
<feOffset/>
<feGaussianBlur stdDeviation="1"/>
<feComposite in2="hardAlpha" operator="arithmetic" k2="-1" k3="1"/>
<feColorMatrix type="matrix" values="0 0 0 0 1 0 0 0 0 1 0 0 0 0 1 0 0 0 0.3 0"/>
<feBlend mode="normal" in2="shape" result="effect1_innerShadow"/>
</filter>
<filter id="filter1_i" x="5.51752" y="1.534" width="52.965" height="61.7774" filterUnits="userSpaceOnUse" color-interpolation-filters="sRGB">
<feFlood flood-opacity="0" result="BackgroundImageFix"/>
<feBlend mode="normal" in="SourceGraphic" in2="BackgroundImageFix" result="shape"/>
<feColorMatrix in="SourceAlpha" type="matrix" values="0 0 0 0 0 0 0 0 0 0 0 0 0 0 0 0 0 0 127 0" result="hardAlpha"/>
<feOffset/>
<feGaussianBlur stdDeviation="1"/>
<feComposite in2="hardAlpha" operator="arithmetic" k2="-1" k3="1"/>
<feColorMatrix type="matrix" values="0 0 0 0 1 0 0 0 0 1 0 0 0 0 1 0 0 0 0.3 0"/>
<feBlend mode="normal" in2="shape" result="effect1_innerShadow"/>
</filter>
<filter id="filter2_i" x="5.51752" y="1.534" width="52.965" height="61.7774" filterUnits="userSpaceOnUse" color-interpolation-filters="sRGB">
<feFlood flood-opacity="0" result="BackgroundImageFix"/>
<feBlend mode="normal" in="SourceGraphic" in2="BackgroundImageFix" result="shape"/>
<feColorMatrix in="SourceAlpha" type="matrix" values="0 0 0 0 0 0 0 0 0 0 0 0 0 0 0 0 0 0 127 0" result="hardAlpha"/>
<feOffset/>
<feGaussianBlur stdDeviation="1"/>
<feComposite in2="hardAlpha" operator="arithmetic" k2="-1" k3="1"/>
<feColorMatrix type="matrix" values="0 0 0 0 1 0 0 0 0 1 0 0 0 0 1 0 0 0 0.3 0"/>
<feBlend mode="normal" in2="shape" result="effect1_innerShadow"/>
</filter>
<linearGradient id="paint0_linear" x1="18.7126" y1="0.845459" x2="37.348" y2="62.028" gradientUnits="userSpaceOnUse">
<stop stop-color="white" stop-opacity="0.26"/>
<stop offset="0.471233" stop-color="white" stop-opacity="0.0781197"/>
<stop offset="1" stop-color="white" stop-opacity="0"/>
</linearGradient>
<clipPath id="clip0">
<rect width="54.34" height="64" fill="white" transform="translate(4.82999)"/>
</clipPath>
</defs>
</svg>
