<?xml version="1.0" standalone="no"?>
<!DOCTYPE svg PUBLIC "-//W3C//DTD SVG 20010904//EN"
 "http://www.w3.org/TR/2001/REC-SVG-20010904/DTD/svg10.dtd">
<svg version="1.0" xmlns="http://www.w3.org/2000/svg"
 width="260.000000pt" height="260.000000pt" viewBox="0 0 260.000000 260.000000"
 preserveAspectRatio="xMidYMid meet">
<metadata>
Created by potrace 1.11, written by Peter Selinger 2001-2013
</metadata>
<g transform="translate(0.000000,260.000000) scale(0.100000,-0.100000)"
fill="#000000" stroke="none">
<path d="M805 2590 c-309 -20 -470 -73 -596 -199 -100 -102 -156 -232 -184
-432 -21 -152 -32 -841 -16 -1104 21 -362 66 -508 196 -641 104 -105 232 -161
436 -189 152 -21 841 -32 1104 -16 362 21 508 66 641 196 105 104 161 232 189
436 21 152 32 841 16 1104 -21 362 -66 508 -196 641 -104 105 -232 161 -436
189 -132 19 -931 29 -1154 15z m777 -520 c18 -25 18 -27 -61 -324 -82 -309
-85 -334 -44 -351 10 -4 74 -22 141 -40 197 -53 206 -78 79 -212 -45 -49 -198
-213 -340 -365 -172 -185 -265 -278 -278 -278 -28 0 -56 17 -69 39 -7 14 10
92 70 317 69 260 77 302 67 324 -11 22 -31 30 -152 63 -77 21 -148 46 -157 54
-45 41 -37 52 323 438 318 341 343 366 372 363 18 -2 37 -13 49 -28z"/>
</g>
</svg>
